<?xml version="1.0" encoding="utf-8"?>
<!-- Generator: Adobe Illustrator 14.0.0, SVG Export Plug-In . SVG Version: 6.00 Build 43363)  -->
<svg version="1.2" baseProfile="tiny" id="Layer_1" xmlns="http://www.w3.org/2000/svg" xmlns:xlink="http://www.w3.org/1999/xlink"
	 x="0px" y="0px" width="140px" height="36px" viewBox="0 0 140 36" xml:space="preserve">
<path fill="#77818d" d="M1.437,19.314l4.783-0.45c0.295,1.608,0.881,2.79,1.76,3.547c0.885,0.752,2.08,1.125,3.582,1.125
	c1.585,0,2.784-0.34,3.597-1.004c0.806-0.684,1.203-1.463,1.203-2.352c0-0.578-0.17-1.082-0.504-1.488
	c-0.34-0.396-0.93-0.757-1.771-1.042c-0.58-0.22-1.894-0.575-3.942-1.096c-2.641-0.649-4.495-1.463-5.55-2.419
	c-1.498-1.357-2.249-3.012-2.249-4.951c0-1.248,0.344-2.428,1.061-3.503C4.106,4.59,5.129,3.759,6.461,3.184
	c1.327-0.556,2.918-0.846,4.813-0.846c3.062,0,5.368,0.679,6.923,2.025c1.55,1.372,2.359,3.173,2.435,5.434l-4.952,0.167
	c-0.219-1.234-0.657-2.143-1.358-2.701c-0.688-0.554-1.729-0.83-3.107-0.83c-1.43,0-2.552,0.294-3.356,0.893
	c-0.528,0.386-0.787,0.88-0.787,1.512c0,0.59,0.241,1.076,0.732,1.49c0.617,0.536,2.132,1.08,4.527,1.639
	c2.401,0.571,4.171,1.162,5.315,1.774c1.148,0.612,2.051,1.444,2.7,2.508c0.644,1.037,0.979,2.362,0.979,3.918
	c0,1.402-0.394,2.73-1.171,3.953c-0.778,1.221-1.881,2.145-3.303,2.744c-1.426,0.584-3.2,0.896-5.323,0.896
	c-3.093,0-5.475-0.723-7.129-2.168C2.747,24.152,1.759,22.059,1.437,19.314z"/>
<path fill="#77818d" d="M20.7,9.514h4.966l4.242,12.63l4.133-12.63h4.841l-6.221,17.101l-1.139,3.121
	c-0.412,1.043-0.8,1.83-1.171,2.377c-0.371,0.557-0.8,1.006-1.283,1.34c-0.492,0.332-1.086,0.6-1.78,0.789
	c-0.71,0.191-1.505,0.299-2.395,0.299c-0.897,0-1.783-0.107-2.655-0.299l-0.388-3.693c0.728,0.154,1.389,0.23,1.975,0.23
	c1.082,0,1.887-0.32,2.404-0.957c0.523-0.654,0.921-1.479,1.198-2.471L20.7,9.514z"/>
<path fill="#77818d" d="M55.165,27.305h-4.676v-9.056c0-1.907-0.098-3.138-0.303-3.706c-0.206-0.562-0.522-1-0.983-1.312
	c-0.451-0.309-1.006-0.467-1.641-0.467c-0.822,0-1.551,0.228-2.207,0.675c-0.658,0.444-1.1,1.028-1.341,1.753
	c-0.236,0.743-0.362,2.092-0.362,4.083v8.029h-4.666V9.514h4.322v2.606c1.555-1.97,3.508-2.943,5.863-2.943
	c1.046,0,1.994,0.19,2.856,0.549c0.863,0.384,1.52,0.848,1.953,1.435c0.438,0.581,0.746,1.237,0.921,1.966
	c0.173,0.724,0.263,1.789,0.263,3.154V27.305z"/>
<path fill="#77818d" d="M55.192,18.222c0-1.577,0.389-3.075,1.159-4.546c0.767-1.456,1.858-2.574,3.271-3.349
	c1.412-0.774,2.989-1.149,4.728-1.149c2.696,0,4.896,0.87,6.61,2.618c1.722,1.748,2.585,3.957,2.585,6.621
	c0,2.691-0.871,4.91-2.606,6.684c-1.734,1.764-3.924,2.66-6.557,2.66c-1.626,0-3.178-0.377-4.661-1.111
	c-1.479-0.738-2.602-1.816-3.369-3.246C55.581,21.988,55.192,20.26,55.192,18.222z M59.978,18.459c0,1.775,0.416,3.133,1.261,4.055
	c0.84,0.949,1.873,1.422,3.107,1.422c1.233,0,2.265-0.473,3.105-1.422c0.828-0.922,1.244-2.295,1.244-4.077
	c0-1.757-0.416-3.102-1.244-4.032c-0.84-0.93-1.872-1.413-3.105-1.413c-1.234,0-2.267,0.483-3.107,1.413
	C60.394,15.335,59.978,16.694,59.978,18.459z"/>
<path fill="#77818d" d="M79.282,0.395v22.967c0,1.096,0.08,1.818,0.233,2.168c0.159,0.363,0.401,0.629,0.727,0.809
	c0.33,0.184,0.944,0.277,1.829,0.277v0.689h-8.487v-0.689c0.796,0,1.337-0.08,1.641-0.254c0.281-0.17,0.508-0.428,0.674-0.814
	c0.165-0.375,0.241-1.104,0.241-2.186V7.688c0-1.972-0.04-3.179-0.125-3.635c-0.081-0.451-0.224-0.753-0.412-0.915
	c-0.191-0.169-0.432-0.264-0.723-0.264c-0.318,0-0.724,0.118-1.212,0.31l-0.322-0.673l5.098-2.116H79.282z"/>
<path fill="#77818d" d="M90.495,9.458c2.633,0,4.739,0.997,6.334,2.991c1.35,1.697,2.024,3.649,2.024,5.853
	c0,1.557-0.366,3.125-1.113,4.705c-0.746,1.586-1.77,2.785-3.084,3.59c-1.309,0.809-2.757,1.213-4.361,1.213
	c-2.624,0-4.702-1.041-6.24-3.115c-1.301-1.748-1.953-3.715-1.953-5.901c0-1.592,0.395-3.159,1.182-4.721
	c0.796-1.582,1.833-2.729,3.124-3.499C87.693,9.836,89.057,9.458,90.495,9.458z M89.915,10.732c-0.671,0-1.341,0.174-2.017,0.58
	c-0.675,0.402-1.224,1.086-1.64,2.071c-0.416,1.004-0.626,2.273-0.626,3.833c0,2.517,0.511,4.665,1.506,6.505
	c1.006,1.809,2.325,2.729,3.962,2.729c1.232,0,2.238-0.514,3.024-1.51c0.8-1.004,1.199-2.73,1.199-5.188
	c0-3.072-0.663-5.472-1.985-7.237C92.44,11.316,91.3,10.732,89.915,10.732z"/>
<path fill="#77818d" d="M102.652,20.955c-1.054-0.537-1.855-1.244-2.425-2.168c-0.56-0.936-0.842-1.949-0.842-3.063
	c0-1.717,0.636-3.197,1.923-4.411c1.29-1.233,2.945-1.854,4.956-1.854c1.644,0,3.07,0.387,4.275,1.197h3.663
	c0.545,0,0.857,0.017,0.953,0.049c0.08,0.041,0.136,0.098,0.182,0.16c0.07,0.118,0.114,0.318,0.114,0.604
	c0,0.33-0.034,0.573-0.098,0.687c-0.038,0.064-0.102,0.122-0.198,0.147c-0.096,0.038-0.408,0.054-0.958,0.054h-2.258
	c0.715,0.912,1.069,2.077,1.069,3.492c0,1.609-0.626,2.998-1.852,4.141c-1.233,1.148-2.886,1.727-4.951,1.727
	c-0.858,0-1.731-0.125-2.629-0.406c-0.526,0.496-0.886,0.908-1.064,1.268c-0.189,0.369-0.286,0.67-0.286,0.912
	c0,0.23,0.104,0.43,0.317,0.643c0.202,0.193,0.614,0.342,1.216,0.424c0.345,0.066,1.234,0.113,2.638,0.154
	c2.588,0.082,4.269,0.182,5.026,0.311c1.173,0.158,2.112,0.602,2.81,1.295c0.697,0.701,1.045,1.557,1.045,2.578
	c0,1.404-0.671,2.742-2,3.979c-1.95,1.82-4.508,2.732-7.658,2.732c-2.423,0-4.471-0.533-6.142-1.627
	c-0.942-0.633-1.407-1.279-1.407-1.965c0-0.289,0.067-0.598,0.196-0.9c0.21-0.475,0.645-1.096,1.295-1.928
	c0.085-0.121,0.722-0.795,1.887-2.033c-0.648-0.406-1.111-0.75-1.375-1.068c-0.27-0.309-0.407-0.666-0.407-1.053
	c0-0.449,0.173-0.963,0.526-1.555C100.553,22.875,101.375,22.027,102.652,20.955z M102.497,27.305
	c-0.576,0.625-1.007,1.225-1.306,1.789c-0.299,0.527-0.438,1.043-0.438,1.494c0,0.619,0.359,1.137,1.087,1.588
	c1.261,0.77,3.08,1.17,5.453,1.17c2.26,0,3.924-0.4,5.005-1.195c1.081-0.789,1.613-1.631,1.613-2.529
	c0-0.641-0.321-1.104-0.965-1.383c-0.656-0.277-1.952-0.438-3.902-0.479C106.207,27.674,104.021,27.51,102.497,27.305z
	 M105.948,10.415c-0.932,0-1.698,0.387-2.331,1.125c-0.623,0.738-0.933,1.846-0.933,3.379c0,1.975,0.424,3.505,1.274,4.598
	c0.655,0.824,1.474,1.236,2.471,1.236c0.952,0,1.739-0.363,2.345-1.076c0.613-0.714,0.918-1.827,0.918-3.345
	c0-2-0.424-3.549-1.288-4.673C107.757,10.843,106.943,10.415,105.948,10.415z"/>
<path fill="#77818d" d="M115.989,9.963h8.104v0.692h-0.394c-0.572,0-0.997,0.134-1.282,0.368c-0.282,0.253-0.42,0.557-0.42,0.914
	c0,0.502,0.2,1.177,0.625,2.044l4.225,8.765l3.865-9.575c0.216-0.526,0.322-1.032,0.322-1.555c0-0.223-0.054-0.389-0.134-0.5
	c-0.104-0.134-0.261-0.254-0.475-0.326c-0.209-0.085-0.593-0.134-1.13-0.134V9.963h5.605v0.692
	c-0.467,0.049-0.827,0.156-1.078,0.304c-0.256,0.156-0.531,0.433-0.831,0.839c-0.117,0.183-0.342,0.658-0.649,1.455l-7.021,17.271
	c-0.685,1.686-1.579,2.943-2.69,3.801c-1.109,0.865-2.178,1.279-3.205,1.279c-0.747,0-1.358-0.199-1.847-0.641
	c-0.478-0.424-0.719-0.912-0.719-1.475c0-0.523,0.173-0.934,0.521-1.262c0.35-0.334,0.837-0.482,1.44-0.482
	c0.42,0,0.998,0.137,1.717,0.404c0.505,0.174,0.827,0.285,0.956,0.285c0.38,0,0.787-0.207,1.243-0.594
	c0.447-0.387,0.896-1.139,1.351-2.25l1.223-3.018l-6.234-13.031c-0.19-0.395-0.496-0.876-0.906-1.462
	c-0.318-0.437-0.577-0.736-0.779-0.898c-0.29-0.188-0.761-0.372-1.403-0.527V9.963z"/>
<path fill="#77818d" d="M134.869,8.814V5.346h1.523c0.31,0,0.541,0.04,0.707,0.113c0.166,0.056,0.28,0.163,0.38,0.312
	c0.098,0.17,0.142,0.342,0.142,0.523c0,0.254-0.075,0.46-0.241,0.622c-0.15,0.172-0.396,0.285-0.728,0.33
	c0.125,0.058,0.215,0.121,0.271,0.17c0.134,0.12,0.262,0.272,0.376,0.45l0.604,0.948h-0.569l-0.459-0.716
	c-0.135-0.196-0.247-0.366-0.332-0.473c-0.094-0.117-0.16-0.187-0.232-0.246c-0.062-0.041-0.133-0.057-0.203-0.08
	c-0.054-0.016-0.145-0.023-0.262-0.023h-0.522v1.538H134.869z M135.324,6.884h0.978c0.207,0,0.373-0.013,0.488-0.072
	c0.122-0.025,0.207-0.111,0.268-0.201c0.069-0.1,0.096-0.206,0.096-0.317c0-0.158-0.058-0.29-0.18-0.398
	c-0.115-0.104-0.304-0.157-0.554-0.157h-1.096V6.884z"/>
<path fill="none" stroke="#77818d" stroke-width="0.25" d="M138.73,6.95c0,1.386-1.127,2.525-2.507,2.525
	c-1.392,0-2.519-1.14-2.519-2.525c0-1.395,1.127-2.512,2.519-2.512C137.604,4.438,138.73,5.556,138.73,6.95z"/>
</svg>
